<svg version="1.1" id="Layer_1" xmlns="http://www.w3.org/2000/svg" x="0" y="0" viewBox="0 0 256 256" style="enable-background:new 0 0 256 256" xml:space="preserve"><style>.st0{fill:#382b73}.st2{fill:#f7cb15}.st3{fill:#e7ad27}.st4{fill:#fede3a}.st5{fill:#d1d3d4}.st6{fill:#fff}.st7{fill:#e6e7e8}.st8{fill:#1caee4}.st9{fill:#009add}</style><switch><g><circle class="st0" cx="128" cy="128" r="120"/><circle cx="128" cy="128" r="102.5" style="fill:#473080"/><path class="st0" d="M51.972 114.381a4.811 4.811 0 0 0 4.811 4.811h6.083a4.811 4.811 0 0 0 4.808-4.966l-.001-.021a4.81 4.81 0 0 0-4.807-4.635h-6.083a4.812 4.812 0 0 0-4.808 4.635l-.001.021a7.908 7.908 0 0 0-.002.155z"/><path class="st0" d="m210.398 126.189 1.143-1.143.989-.989a1.883 1.883 0 0 0 0-2.664l-4.579-4.579a1.883 1.883 0 0 0-2.664 0l-.95.95-.732.732-.41.41a23.406 23.406 0 0 0-9.642-3.538v-3.22h1.933a2.922 2.922 0 0 0 2.425-1.289l.076-.119a2.917 2.917 0 0 0 .424-1.516v-2.376a2.924 2.924 0 0 0-2.924-2.924h-9.926c-9.46-17.148-27.716-28.763-48.686-28.763-23.197 0-43.074 14.215-51.396 34.409h-5.872a4.81 4.81 0 0 0-4.807 4.631l-.001.028-.002.14v.012a4.785 4.785 0 0 0 .822 2.69 4.806 4.806 0 0 0 3.989 2.121h2.901a55.774 55.774 0 0 0-1.196 10.997H46.811a4.812 4.812 0 0 0-4.808 4.635l-.001.021a4.811 4.811 0 0 0 4.809 4.966H81.31a55.782 55.782 0 0 0 1.196 10.997H65.414a4.811 4.811 0 0 0-4.808 4.643v.007a4.811 4.811 0 0 0 4.808 4.972h20.063c8.322 20.194 28.199 34.409 51.396 34.409 20.673 0 38.708-11.289 48.279-28.039a55.33 55.33 0 0 0 2.408-4.726 23.7 23.7 0 0 0 2.898.177c13.002 0 23.543-10.541 23.543-23.543a23.437 23.437 0 0 0-3.603-12.519z"/><g><path class="st2" d="M106.666 153.43H65.414a4.811 4.811 0 0 1 0-9.622h41.252a4.811 4.811 0 0 1 0 9.622z"/><path class="st3" d="M106.666 148.619H65.414c-1.776 0-3.311-.973-4.144-2.406a4.765 4.765 0 0 0-.667 2.406 4.811 4.811 0 0 0 4.811 4.811h41.252a4.811 4.811 0 0 0 4.811-4.811c0-.881-.254-1.695-.667-2.406-.833 1.433-2.368 2.406-4.144 2.406z"/><path class="st2" d="M106.666 132.811H46.811a4.811 4.811 0 0 1 0-9.622h59.855a4.811 4.811 0 0 1 0 9.622z"/><path class="st3" d="M106.666 128H46.811c-1.776 0-3.31-.974-4.144-2.406A4.765 4.765 0 0 0 42 128a4.811 4.811 0 0 0 4.811 4.811h59.855a4.811 4.811 0 0 0 4.811-4.811c0-.881-.254-1.696-.667-2.406-.833 1.432-2.368 2.406-4.144 2.406z"/><path class="st2" d="M62.866 112.192h-6.083a4.811 4.811 0 0 1 0-9.622h6.083a4.811 4.811 0 0 1 0 9.622z"/><path class="st3" d="M62.866 107.381h-6.083c-1.776 0-3.31-.973-4.144-2.405a4.765 4.765 0 0 0-.667 2.405 4.811 4.811 0 0 0 4.811 4.811h6.083a4.811 4.811 0 0 0 4.811-4.811c0-.881-.254-1.695-.667-2.405-.833 1.431-2.367 2.405-4.144 2.405z"/><path class="st2" d="M106.666 112.192H79.605a4.811 4.811 0 0 1 0-9.622h27.062a4.811 4.811 0 0 1 4.811 4.811 4.813 4.813 0 0 1-4.812 4.811z"/><path class="st3" d="M106.666 107.381H79.605c-1.776 0-3.31-.973-4.144-2.405a4.765 4.765 0 0 0-.667 2.405 4.811 4.811 0 0 0 4.811 4.811h27.062a4.811 4.811 0 0 0 4.811-4.811c0-.881-.254-1.695-.667-2.405-.834 1.431-2.369 2.405-4.145 2.405z"/><circle transform="rotate(-45.001 136.872 132.276)" class="st3" cx="136.873" cy="132.274" r="55.565"/><ellipse transform="rotate(-76.714 136.886 123.73)" class="st4" cx="136.873" cy="123.726" rx="55.566" ry="55.565"/><circle class="st2" cx="136.873" cy="123.726" r="41.674"/><path class="st3" d="M136.873 85.138c22.495 0 40.777 17.836 41.596 40.131.019-.516.078-1.022.078-1.543 0-23.016-18.658-41.674-41.674-41.674s-41.674 18.658-41.674 41.674c0 .521.059 1.027.078 1.543.818-22.295 19.101-40.131 41.596-40.131z"/><path class="st3" d="M154.456 136.09c0-2.69-.536-5.066-1.595-7.064-1.057-1.993-2.646-3.725-4.724-5.15-1.957-1.341-4.908-2.672-9.02-4.068-4.364-1.482-6.374-2.807-7.292-3.659-.673-.622-1.126-1.413-1.373-2.388a2.246 2.246 0 0 1 0-1.09c.276-1.093.806-2 1.599-2.745 1.275-1.197 3.101-1.778 5.581-1.778 2.363 0 4.145.719 5.447 2.197 1.386 1.572 2.059 3.718 2.059 6.561a2.515 2.515 0 0 0 2.516 2.516h3.923a2.516 2.516 0 0 0 2.516-2.516c0-.114-.02-.212-.022-.324h.022v-2.516c0-4.957-1.267-8.989-3.766-11.984-1.739-2.083-3.962-3.562-6.636-4.423a2.518 2.518 0 0 1-1.763-2.391v-2.564a2.516 2.516 0 0 0-2.516-2.516h-3.363a2.516 2.516 0 0 0-2.516 2.516v2.5a2.512 2.512 0 0 1-1.802 2.402c-2.539.757-4.696 2.027-6.441 3.799-2.668 2.707-4.021 6.236-4.021 10.487 0 .505.077.967.115 1.45-.035.465-.115.906-.115 1.39 0 4.049 1.237 7.427 3.676 10.041 2.324 2.49 6.098 4.531 11.468 6.216 4.518 1.564 6.538 2.943 7.437 3.822a5.05 5.05 0 0 1 1.217 1.87 2.57 2.57 0 0 1-.004 1.81c-.333.866-.878 1.613-1.658 2.275-1.512 1.284-3.476 1.908-6.004 1.908-2.928 0-5.094-.722-6.62-2.206-1.505-1.464-2.238-3.511-2.238-6.257a2.516 2.516 0 0 0-2.516-2.516h-3.956a2.515 2.515 0 0 0-2.516 2.516c0 .114.023.212.025.324h-.025v2.516c0 4.986 1.459 9.02 4.336 11.988 1.998 2.061 4.558 3.492 7.643 4.278a2.511 2.511 0 0 1 1.901 2.43V157.689a2.516 2.516 0 0 0 2.516 2.516h3.33a2.516 2.516 0 0 0 2.516-2.516v-2.061c0-1.125.753-2.108 1.837-2.412 2.65-.744 4.89-2.005 6.69-3.769 2.742-2.689 4.133-6.228 4.133-10.516 0-.607-.036-1.194-.091-1.768.021-.364.09-.699.09-1.073z"/><path class="st5" d="M152.862 129.026c-1.057-1.993-2.646-3.725-4.723-5.15-1.958-1.342-4.909-2.673-9.021-4.068-4.364-1.482-6.374-2.807-7.292-3.659-1.077-.996-1.601-2.417-1.601-4.343 0-2.021.598-3.566 1.827-4.72 1.275-1.197 3.101-1.778 5.581-1.778 2.363 0 4.145.718 5.447 2.197 1.386 1.573 2.059 3.719 2.059 6.562a2.515 2.515 0 0 0 2.516 2.516h3.923a2.516 2.516 0 0 0 2.516-2.516c0-4.957-1.267-8.989-3.766-11.984-1.739-2.083-3.962-3.562-6.636-4.424a2.518 2.518 0 0 1-1.763-2.391v-2.565a2.515 2.515 0 0 0-2.516-2.516h-3.362a2.516 2.516 0 0 0-2.516 2.516v2.5a2.51 2.51 0 0 1-1.802 2.402c-2.539.757-4.696 2.027-6.441 3.799-2.668 2.707-4.021 6.236-4.021 10.487 0 4.049 1.237 7.426 3.676 10.041 2.324 2.49 6.098 4.53 11.468 6.216 4.518 1.564 6.538 2.942 7.436 3.822 1.089 1.066 1.618 2.434 1.618 4.186 0 1.95-.655 3.415-2.062 4.61-1.512 1.283-3.476 1.907-6.004 1.907-2.928 0-5.094-.722-6.62-2.206-1.505-1.465-2.238-3.512-2.238-6.257a2.515 2.515 0 0 0-2.516-2.516h-3.956a2.515 2.515 0 0 0-2.516 2.516c0 4.987 1.459 9.02 4.335 11.988 1.998 2.061 4.558 3.492 7.643 4.278a2.511 2.511 0 0 1 1.901 2.429v1.943a2.515 2.515 0 0 0 2.516 2.516h3.329a2.515 2.515 0 0 0 2.516-2.516v-2.061c0-1.125.753-2.108 1.837-2.412 2.649-.744 4.89-2.005 6.69-3.769 2.742-2.689 4.133-6.228 4.133-10.516-.001-2.69-.537-5.066-1.595-7.064z"/><path class="st6" d="M152.862 126.186c-1.057-1.993-2.646-3.725-4.723-5.15-1.958-1.342-4.909-2.673-9.021-4.068-4.364-1.483-6.374-2.807-7.292-3.659-1.077-.996-1.601-2.417-1.601-4.343 0-2.022.598-3.566 1.827-4.72 1.275-1.197 3.101-1.778 5.581-1.778 2.363 0 4.145.718 5.447 2.197 1.386 1.573 2.059 3.719 2.059 6.562a2.515 2.515 0 0 0 2.516 2.516h3.923a2.515 2.515 0 0 0 2.516-2.516c0-4.957-1.267-8.989-3.766-11.984-1.739-2.082-3.962-3.562-6.636-4.423a2.518 2.518 0 0 1-1.763-2.391v-2.565a2.515 2.515 0 0 0-2.516-2.516h-3.362a2.516 2.516 0 0 0-2.516 2.516v2.5a2.51 2.51 0 0 1-1.802 2.402c-2.539.757-4.696 2.027-6.441 3.799-2.668 2.707-4.021 6.236-4.021 10.487 0 4.049 1.237 7.427 3.676 10.041 2.324 2.49 6.098 4.53 11.468 6.216 4.518 1.564 6.538 2.942 7.436 3.822 1.089 1.066 1.618 2.434 1.618 4.186 0 1.95-.655 3.415-2.062 4.61-1.512 1.284-3.476 1.908-6.004 1.908-2.928 0-5.094-.722-6.62-2.206-1.505-1.464-2.238-3.511-2.238-6.257a2.515 2.515 0 0 0-2.516-2.516h-3.956a2.516 2.516 0 0 0-2.516 2.516c0 4.987 1.459 9.02 4.335 11.988 1.998 2.061 4.558 3.493 7.643 4.278a2.511 2.511 0 0 1 1.901 2.429v1.943a2.515 2.515 0 0 0 2.516 2.516h3.329a2.516 2.516 0 0 0 2.516-2.516v-2.061a2.51 2.51 0 0 1 1.837-2.412c2.649-.744 4.89-2.005 6.69-3.769 2.742-2.689 4.133-6.227 4.133-10.516-.001-2.693-.537-5.069-1.595-7.066z"/><path class="st3" d="M192.438 132.274c0-10.933-3.157-21.127-8.61-29.723a2.92 2.92 0 0 0-1.322 2.446v2.376a2.927 2.927 0 0 0 .229 1.138 2.924 2.924 0 0 0 2.695 1.786h1.932v3.22a23.394 23.394 0 0 0-9.672 3.557l-.386-.386-.756-.757-.97-.97a1.883 1.883 0 0 0-2.664 0l-4.579 4.579a1.884 1.884 0 0 0 0 2.665l1.599 1.599.563.563a23.434 23.434 0 0 0-3.583 12.49c0 11.178 7.79 20.536 18.237 22.942 4.637-8.113 7.287-17.509 7.287-27.525z"/><g><path class="st6" d="M187.363 104.318h6.188v4.527h-6.188zM177.994 112.228l-7.244 7.244-2.415-2.415a1.883 1.883 0 0 1 0-2.664l4.579-4.579a1.883 1.883 0 0 1 2.664 0l2.416 2.414zM202.871 112.228l7.244 7.244 2.415-2.415a1.883 1.883 0 0 0 0-2.664l-4.579-4.579a1.883 1.883 0 0 0-2.664 0l-2.416 2.414z"/><path class="st7" d="M211.541 118.046a25.263 25.263 0 0 0-7.205-7.283l-1.464 1.465 7.244 7.244 1.425-1.426zM169.355 118.076l1.395 1.396 7.244-7.244-1.445-1.445a25.26 25.26 0 0 0-7.194 7.293z"/><circle transform="rotate(-22.5 190.449 131.704)" class="st8" cx="190.457" cy="131.709" r="23.543"/><circle class="st9" cx="190.457" cy="131.709" r="19.851"/><circle transform="rotate(-22.5 190.449 131.704)" class="st6" cx="190.457" cy="131.709" r="17.506"/><path style="fill:#bcbec0" d="M187.363 104.318h6.188v1.93h-6.188z"/><path class="st6" d="M195.484 105.148h-10.053a2.924 2.924 0 0 1-2.924-2.924v-2.376a2.924 2.924 0 0 1 2.924-2.924h10.053a2.924 2.924 0 0 1 2.924 2.924v2.376a2.924 2.924 0 0 1-2.924 2.924z"/><path class="st7" d="M193.142 105.148h-5.369a2.32 2.32 0 0 1-2.32-2.32v-3.584a2.32 2.32 0 0 1 2.32-2.32h5.369a2.32 2.32 0 0 1 2.32 2.32v3.584a2.32 2.32 0 0 1-2.32 2.32z"/><path class="st6" d="M190.979 105.148h-1.042a1.46 1.46 0 0 1-1.46-1.46v-5.306c0-.806.654-1.46 1.46-1.46h1.042c.806 0 1.46.653 1.46 1.46v5.306a1.461 1.461 0 0 1-1.46 1.46z"/><path class="st5" d="M195.484 102.949h-10.053a2.924 2.924 0 0 1-2.924-2.925v2.2a2.924 2.924 0 0 0 2.924 2.924h10.053a2.924 2.924 0 0 0 2.924-2.924v-2.2a2.925 2.925 0 0 1-2.924 2.925z"/><path class="st7" d="M190.457 121.962c-.667 0-1.207-.54-1.207-1.207v-3.848a1.206 1.206 0 1 1 2.414 0v3.848c0 .667-.54 1.207-1.207 1.207zM190.457 148.171c-.667 0-1.207-.54-1.207-1.207v-3.848a1.206 1.206 0 1 1 2.414 0v3.848c0 .667-.54 1.207-1.207 1.207zM205.486 133.142h-3.849a1.206 1.206 0 1 1 0-2.414h3.849a1.206 1.206 0 1 1 0 2.414zM179.277 133.142h-3.849a1.206 1.206 0 1 1 0-2.414h3.849a1.206 1.206 0 1 1 0 2.414zM190.458 136.323a2.415 2.415 0 0 1-1.707-4.122l8.426-8.426a2.415 2.415 0 0 1 3.415 3.415l-8.426 8.426a2.413 2.413 0 0 1-1.708.707z"/><path class="st4" d="M190.458 134.123a2.415 2.415 0 0 1-1.707-4.122l8.426-8.426a2.415 2.415 0 0 1 3.415 3.415l-8.426 8.426a2.409 2.409 0 0 1-1.708.707z"/><path class="st2" d="M200.591 121.575a2.39 2.39 0 0 0-1.046-.604 2.406 2.406 0 0 1-.604 2.369l-8.426 8.426a2.405 2.405 0 0 1-1.707.707 2.4 2.4 0 0 1-.661-.104c.109.382.303.745.604 1.046.471.472 1.09.707 1.707.707.618 0 1.236-.236 1.708-.707l8.426-8.426a2.415 2.415 0 0 0-.001-3.414z"/><g><circle class="st5" cx="190.457" cy="132.809" r="4.377"/></g><g><path class="st8" d="M194.834 131.709a4.376 4.376 0 1 1-8.751 0 4.376 4.376 0 0 1 8.751 0z"/></g><g><path class="st9" d="M190.457 132.376a4.369 4.369 0 0 1-3.951-2.522 4.335 4.335 0 0 0-.426 1.854 4.377 4.377 0 0 0 8.753 0c0-.665-.16-1.289-.426-1.854a4.362 4.362 0 0 1-3.95 2.522z"/></g></g></g></g></switch></svg>